<svg width="61" height="47" viewBox="0 0 61 47" fill="none" xmlns="http://www.w3.org/2000/svg">
<path d="M59.9833 47.3201H46.97V41.1201C48.3256 40.9823 49.6133 40.4656 50.8333 39.5701C52.0533 38.6745 53.0022 37.5378 53.68 36.1601C55.7133 35.7467 57.4417 34.6445 58.865 32.8534C60.2883 31.0623 61 28.9267 61 26.4467C61 24.6556 60.5594 22.9678 59.6783 21.3834C58.7972 19.7989 57.6789 18.5934 56.3233 17.7667C56.1878 14.7356 55.1033 12.1523 53.07 10.0167C51.0367 7.88116 48.5967 6.81338 45.75 6.81338C43.9878 6.81338 42.2933 7.2956 40.6667 8.26005C40.5311 8.39782 40.4294 8.60449 40.3617 8.88005C40.2939 9.1556 40.3278 9.39671 40.4633 9.60338C40.5989 9.81005 40.8022 9.94783 41.0733 10.0167C41.3444 10.0856 41.5478 10.0512 41.6833 9.91338C43.0389 9.22449 44.3944 8.88005 45.75 8.88005C48.0544 8.88005 50.0539 9.81005 51.7483 11.67C53.4428 13.53 54.29 15.7689 54.29 18.3867C54.29 18.8 54.4933 19.0756 54.9 19.2134C56.12 19.9023 57.1028 20.9012 57.8483 22.21C58.5939 23.5189 58.9667 24.9312 58.9667 26.4467C58.9667 28.3756 58.3906 30.0978 57.2383 31.6134C56.0861 33.1289 54.6289 34.0245 52.8667 34.3C52.5956 34.3 52.3922 34.5067 52.2567 34.9201C51.7144 36.0223 50.9689 36.9523 50.02 37.7101C49.0711 38.4678 48.0544 38.9156 46.97 39.0534V29.96L51.85 25.4134C52.1211 25.2756 52.2567 25.0345 52.2567 24.69C52.2567 24.3456 52.155 24.07 51.9517 23.8634C51.7483 23.6567 51.5111 23.5534 51.24 23.5534C50.9689 23.5534 50.7656 23.6912 50.63 23.9667L46.97 27.2734V20.4534C46.97 20.1778 46.8683 19.9367 46.665 19.73C46.4617 19.5234 46.2244 19.42 45.9533 19.42C45.6822 19.42 45.445 19.5234 45.2417 19.73C45.0383 19.9367 44.9367 20.1778 44.9367 20.4534V32.8534L41.2767 29.5467C41.1411 29.2712 40.9378 29.1334 40.6667 29.1334C40.3956 29.1334 40.1583 29.2367 39.955 29.4434C39.7517 29.65 39.65 29.8912 39.65 30.1667C39.65 30.4423 39.7856 30.7178 40.0567 30.9934L44.9367 35.5401V39.0534C43.7167 38.9156 42.6322 38.4678 41.6833 37.7101C40.7344 36.9523 39.9889 35.9534 39.4467 34.7134C39.3111 34.4378 39.04 34.3 38.6333 34.3C37.0067 33.8867 35.6511 32.9567 34.5667 31.51C33.4822 30.0634 32.94 28.3756 32.94 26.4467C32.94 24.9312 33.2789 23.5534 33.9567 22.3134C34.6344 21.0734 35.5833 20.1089 36.8033 19.42C37.0744 19.1445 37.21 18.8 37.21 18.3867C37.21 16.1823 37.82 14.2534 39.04 12.6C39.1756 12.3245 39.2433 12.0489 39.2433 11.7734C39.2433 11.4978 39.1078 11.2567 38.8367 11.05C38.5656 10.8434 38.2944 10.7745 38.0233 10.8434C37.7522 10.9123 37.5489 11.0845 37.4133 11.36C36.0578 13.2889 35.38 15.4934 35.38 17.9734C33.8889 18.8 32.7706 19.9712 32.025 21.4867C31.2794 23.0023 30.9067 24.6556 30.9067 26.4467C30.9067 28.7889 31.5506 30.8556 32.8383 32.6467C34.1261 34.4378 35.7867 35.6089 37.82 36.1601C38.4978 37.5378 39.4806 38.6745 40.7683 39.5701C42.0561 40.4656 43.4456 40.9823 44.9367 41.1201V47.3201H44.3267C44.1911 46.0801 43.7167 44.9089 42.9033 43.8067C42.09 42.7045 41.0733 41.9467 39.8533 41.5334C39.4467 40.7067 38.8706 40.0178 38.125 39.4667C37.3794 38.9156 36.6 38.5023 35.7867 38.2267C35.5156 36.8489 34.8378 35.7123 33.7533 34.8167C32.6689 33.9212 31.3811 33.4734 29.89 33.4734C28.8056 33.4734 27.8228 33.7489 26.9417 34.3C26.0606 34.8512 25.3489 35.6089 24.8067 36.5734C23.7222 36.5734 22.7394 36.8489 21.8583 37.4001C20.9772 37.9512 20.2656 38.6401 19.7233 39.4667C19.4522 38.6401 18.91 37.9167 18.0967 37.2967C17.2833 36.6767 16.4022 36.2978 15.4533 36.1601V33.4734C16.8089 33.3356 18.0628 32.8534 19.215 32.0267C20.3672 31.2001 21.2822 30.0978 21.96 28.72C23.8578 28.3067 25.4844 27.2389 26.84 25.5167C28.1956 23.7945 28.8733 21.7623 28.8733 19.42C28.8733 17.6289 28.4667 15.9756 27.6533 14.46C26.84 12.9445 25.7556 11.7734 24.4 10.9467C24.2644 8.05338 23.2139 5.60783 21.2483 3.61005C19.2828 1.61227 16.9444 0.61338 14.2333 0.61338C12.2 0.61338 10.3022 1.23338 8.54 2.47338C8.40444 2.61116 8.30278 2.81783 8.235 3.09338C8.16722 3.36893 8.20111 3.64449 8.33667 3.92005C8.47222 4.1956 8.67556 4.33338 8.94667 4.33338C9.21778 4.33338 9.48889 4.26449 9.76 4.12671C11.1156 3.16227 12.6067 2.68005 14.2333 2.68005C16.5378 2.68005 18.4694 3.54116 20.0283 5.26338C21.5872 6.9856 22.3667 9.08671 22.3667 11.5667C22.3667 11.98 22.57 12.3245 22.9767 12.6C24.1967 13.1512 25.1456 14.0467 25.8233 15.2867C26.5011 16.5267 26.84 17.9045 26.84 19.42C26.84 21.2112 26.2978 22.83 25.2133 24.2767C24.1289 25.7234 22.7733 26.5845 21.1467 26.86C20.74 26.86 20.4689 27.0667 20.3333 27.48C19.9267 28.5823 19.2828 29.4778 18.4017 30.1667C17.5206 30.8556 16.5378 31.2689 15.4533 31.4067V22.9334L20.13 18.3867C20.4011 18.2489 20.5367 18.0423 20.5367 17.7667C20.5367 17.4912 20.435 17.25 20.2317 17.0434C20.0283 16.8367 19.7911 16.7334 19.52 16.7334C19.2489 16.7334 19.0456 16.8023 18.91 16.94L15.4533 20.04V13.6334C15.4533 13.3578 15.3517 13.1167 15.1483 12.91C14.945 12.7034 14.7078 12.6 14.4367 12.6C14.1656 12.6 13.9283 12.7034 13.725 12.91C13.5217 13.1167 13.42 13.3578 13.42 13.6334V25.4134L10.1667 22.3134C9.89556 22.0378 9.62444 21.9 9.35333 21.9C9.08222 21.9 8.845 22.0034 8.64167 22.21C8.43833 22.4167 8.33667 22.6923 8.33667 23.0367C8.33667 23.3812 8.47222 23.6223 8.74333 23.76L13.42 28.1V31.4067C12.3356 31.2689 11.3189 30.8556 10.37 30.1667C9.42111 29.4778 8.67556 28.5823 8.13333 27.48C7.99778 27.0667 7.79444 26.86 7.52333 26.86C5.89667 26.4467 4.575 25.5512 3.55833 24.1734C2.54167 22.7956 2.03333 21.2112 2.03333 19.42C2.03333 18.0423 2.37222 16.7334 3.05 15.4934C3.72778 14.2534 4.60889 13.2889 5.69333 12.6C6.1 12.4623 6.30333 12.1867 6.30333 11.7734V11.5667C6.30333 10.3267 6.50667 9.1556 6.91333 8.05338L7.32 7.02005C7.45556 6.74449 7.48944 6.46894 7.42167 6.19338C7.35389 5.91782 7.18444 5.71116 6.91333 5.57338C6.64222 5.4356 6.37111 5.40116 6.1 5.47005C5.82889 5.53894 5.62556 5.71116 5.49 5.98671L5.08333 7.22672C4.54111 8.46671 4.27 9.7756 4.27 11.1534C2.91444 12.1178 1.86389 13.3234 1.11833 14.77C0.372778 16.2167 0 17.7667 0 19.42C0 21.6245 0.61 23.5878 1.83 25.31C3.05 27.0323 4.60889 28.1689 6.50667 28.72C7.32 30.0978 8.33667 31.2001 9.55667 32.0267C10.7767 32.8534 12.0644 33.3356 13.42 33.4734V36.3667C12.3356 36.7801 11.4544 37.5378 10.7767 38.6401C9.55667 38.7778 8.50611 39.2601 7.625 40.0867C6.74389 40.9134 6.23556 41.8778 6.1 42.9801C5.15111 43.3934 4.37167 43.9789 3.76167 44.7367C3.15167 45.4945 2.71111 46.3556 2.44 47.3201H1.01667C0.745556 47.3201 0.508333 47.4234 0.305 47.6301C0.101667 47.8367 0 48.0778 0 48.3534C0 48.6289 0.101667 48.8701 0.305 49.0767C0.508333 49.2834 0.745556 49.3867 1.01667 49.3867H59.9833C60.2544 49.3867 60.4917 49.2834 60.695 49.0767C60.8983 48.8701 61 48.6289 61 48.3534C61 48.0778 60.8983 47.8367 60.695 47.6301C60.4917 47.4234 60.2544 47.3201 59.9833 47.3201ZM4.47333 47.3201C5.01556 46.0801 5.96444 45.2534 7.32 44.8401C7.72667 44.5645 7.93 44.2201 7.93 43.8067C7.93 42.9801 8.235 42.2567 8.845 41.6367C9.455 41.0167 10.2344 40.7067 11.1833 40.7067H11.3867C11.7933 40.7067 12.0983 40.4656 12.3017 39.9834C12.505 39.5012 12.8778 39.0878 13.42 38.7434C13.9622 38.3989 14.5722 38.2267 15.25 38.2267C15.9278 38.2267 16.5378 38.5023 17.08 39.0534C17.6222 39.6045 17.9611 40.2934 18.0967 41.1201C18.0967 41.2578 18.1983 41.4301 18.4017 41.6367C18.605 41.8434 18.7744 41.9467 18.91 41.9467L19.7233 42.1534L20.9433 42.9801L21.5533 44.0134C21.6889 44.2889 21.96 44.4956 22.3667 44.6334L23.3833 45.0467L24.8067 47.3201H4.47333ZM26.84 47.3201L26.4333 45.4601L25.01 43.8067L23.18 42.7734V42.5667L21.5533 40.7067C21.8244 40.0178 22.2989 39.5012 22.9767 39.1567C23.6544 38.8123 24.3322 38.6401 25.01 38.6401H25.4167C25.8233 38.6401 26.0944 38.4334 26.23 38.0201C26.6367 37.3312 27.145 36.7456 27.755 36.2634C28.365 35.7812 29.1444 35.5401 30.0933 35.5401C31.0422 35.5401 31.8894 35.9189 32.635 36.6767C33.3806 37.4345 33.8211 38.2956 33.9567 39.2601C33.9567 39.5356 34.0244 39.7423 34.16 39.8801C34.2956 40.0178 34.4989 40.1556 34.77 40.2934C35.5833 40.2934 36.295 40.5345 36.905 41.0167C37.515 41.4989 37.9556 42.0845 38.2267 42.7734C38.3622 43.1867 38.5656 43.3934 38.8367 43.3934C39.7856 43.6689 40.565 44.1512 41.175 44.8401C41.785 45.5289 42.1578 46.3556 42.2933 47.3201H26.84Z" fill="#A4ED8E"/>
</svg>
